<svg id="Слой_1" data-name="Слой 1" xmlns="http://www.w3.org/2000/svg" viewBox="0 0 2797.74 1576.11"><defs><style>.cls-1{fill:#ebf3fa;}.cls-2{fill:#cde0fb;}.cls-3{fill:#2e3552;}.cls-4{fill:#f99746;}.cls-5{fill:#c0d8fb;}.cls-6{fill:#233862;}.cls-7{fill:#ffb27d;}.cls-8{fill:#2b478b;}.cls-9{fill:#ed975d;}.cls-10{fill:#f9ddbf;}.cls-11{fill:#f2ccaa;}.cls-12{fill:#ed7d2b;}.cls-13{fill:#fff;}.cls-14{fill:#e8945b;}.cls-15{fill:#163560;}.cls-16{fill:#1c468a;}.cls-17{fill:#f1a34f;}.cls-18{fill:#d86713;}.cls-19{fill:#d9935c;}.cls-20{fill:#466aa5;}.cls-21{fill:#ef7e29;}.cls-22{fill:#ffa561;}</style></defs><title>7800</title><path class="cls-1" d="M463.61,1797S138.13,1400.8,297.2,992.92c103.68-265.86,492.62-411.54,712.11-265.86,93.49,62.05,393.42,2.1,553.56-254.78,311.2-499.18,1397.29-196,1199.56,570.39-95.69,370.88,291.21,384.37,94.07,755.11Z" transform="translate(-236.31 -227.98)"/><path class="cls-2" d="M921.5,1274.14c-25.1-61.48,73-111.21,73-111.21s126.45,44.58,145.06,33.73-100.68-59.22-100.68-59.22c30.47-28.31,145.12-52,145.12-52s74.12,108.06,89.48,93-70.51-92.34-70.51-92.34c39.14-14.76,97.22-.3,97.22-.3,83.35,32.13,37.78,137.49,37.78,137.49s26.5,36.9,80.39,61.27h0s10.86,3.8,25.89,12.89l-8.68,6.63q-3.72-2.68-7.5-4.94s0,0,0,0l-.11-.06c-1.62-.89-3.93-2.14-6.78-3.66h0c-6.62-3.17-11.34-5.63-14.58-7.54,0,0,0,0,0,0-20.39-10.23-48.06-22.72-59.09-21.34a20.9,20.9,0,0,0-1.19-5.4c.38,1.72.77,3.52,1.19,5.4,9.45,43.19-60.79,105.23-108.67,128.34s-38.75-2.33-30.93-38.3,58.33-66.64,66.46-84.6-17.72-10-43.69,13.2-18.7,61.32-60,99.61-139.32-19.63-139.32-19.63c38.07-14,80.29-73.08,74.31-85.31s-86.9,51.23-102.06,57.77S946.61,1335.62,921.5,1274.14Z" transform="translate(-236.31 -227.98)"/><path class="cls-2" d="M1561.73,512.51c36.64-50.8,125.45,2.85,125.45,2.85s27.52,123.44,45.49,132.9-2.92-110.13-2.92-110.13c37.87,10.23,114.11,90.11,114.11,90.11s-49.41,113.29-29.66,118,38.63-102.55,38.63-102.55c31.37,23.93,48.83,77.62,48.83,77.62,15.94,82.74-91.12,98.93-91.12,98.93s-16.28,39.63-8.84,94.93h0s2.39,10.59,2.63,27.16l-9.64-3.63c.19-2.88.26-5.71.2-8.47a0,0,0,0,0,0,0v-.12c-.1-1.74-.25-4.22-.46-7.24v0h0c-.77-6.88-1.15-11.88-1.25-15.43v0c-2-21.42-5.84-49.79-12.45-57.93a20,20,0,0,0,3.73-3.65l-3.73,3.65c-29.83,29.14-114.56,4-157-22.8s-17.5-32.17,15.18-43.89,82.46,13.37,100.89,10.9-.86-19.17-32.39-28.36S1649,781,1597.74,767s-53.91-121.27-53.91-121.27c30.18,23.49,98.58,27.72,105.38,16.82S1564.8,618.67,1552,609.8,1525.09,563.32,1561.73,512.51Z" transform="translate(-236.31 -227.98)"/><path class="cls-2" d="M2269.48,1684.84c90.66-18.64,72.1-170.83,72.1-170.83S2191.85,1402.19,2190,1372.24s146.68,70.6,146.68,70.6c9.13-57.24-52.38-208.36-52.38-208.36s-182.63-2-177.07-31.45,161.61,10,161.61,10c-13.27-56.77-75.08-112.8-75.08-112.8-101.86-71.56-188.5,62.94-188.5,62.94s-63.27-2.05-133.31-45.54h0s-12.83-9.63-35-20l-.94,15.2q6,2.24,11.54,4.85a.07.07,0,0,1,.06,0l.16.08c2.29,1.19,5.53,2.89,9.49,5h0c8.8,5.21,15.32,8.76,20,11l0,0c27.66,15.67,63.59,38,70.56,51.85a29.24,29.24,0,0,1,7.17-2.82l-7.17,2.82c-57.34,22.56-74.67,152-64.28,225.39s32.77,43.05,68.34,6.09,31.89-119.24,46.38-142.58,25.32,12.75,18.62,60.82-56.49,69.23-68.75,146.79S2079,1628.31,2079,1628.31c-13.39-54.9,22.31-149.66,41.11-152.23s8.11,140.36,12.3,163S2178.82,1703.47,2269.48,1684.84Z" transform="translate(-236.31 -227.98)"/><rect class="cls-3" y="1561.74" width="2797.74" height="11.68" rx="3.98"/><path class="cls-4" d="M2074.91,733.74H1195.44a81.1,81.1,0,0,0-81.1,81.1v435.31a81.09,81.09,0,0,0,81.1,81.09h518.37L1855,1592.35V1331.24h219.89a81.09,81.09,0,0,0,81.1-81.09V814.84A81.1,81.1,0,0,0,2074.91,733.74Z" transform="translate(-236.31 -227.98)"/><path class="cls-5" d="M2154.46,382.36h527.26c26.85,0,48.62,25.42,48.62,46.48v184c0,31.61-21.77,50.35-48.62,50.35H2371L2286.29,786V663.22H2154.46c-26.85,0-48.62-17.06-48.62-38.12V438.22C2105.84,402.81,2127.61,382.36,2154.46,382.36Z" transform="translate(-236.31 -227.98)"/><path class="cls-1" d="M1145.38,304.7h-394A36.33,36.33,0,0,0,715,341v195a36.34,36.34,0,0,0,36.33,36.34H983.6l63.27,117v-117h98.51a36.33,36.33,0,0,0,36.33-36.34V341A36.32,36.32,0,0,0,1145.38,304.7Z" transform="translate(-236.31 -227.98)"/><path class="cls-6" d="M1446.84,702.16c-13.49,23.49-30.47,32.55-30.47,32.55h-70.61S1457.13,684.24,1446.84,702.16Z" transform="translate(-236.31 -227.98)"/><path class="cls-7" d="M1392.61,883.88a6.54,6.54,0,0,0-1.17,7l0,0c1.69,4.65,7.25,9.85,13.71,15,.83.67,1.56,1.27,2.2,1.84l.5.44.38.34c6,5.56,3.76,6.83,14.58,18.1,12.35,12.85,20.85,13.08,23.27,11.91,2-1-2.11-7.81-6.72-15.47-.22-.37-.44-.74-.67-1.11l-1.83-3.08c-5.4-9.21-4-13.54-2.73-27.25,1-11.15,17.34-62.27,17.34-62.27l-23.66-4.08s-7.13,40.71-15,47c-4.2,3.34-8.9,3.38-12.93,5.86-.29.17-.57.35-.84.53A31.1,31.1,0,0,0,1392.61,883.88Z" transform="translate(-236.31 -227.98)"/><path class="cls-6" d="M1392.61,883.88a6.54,6.54,0,0,0-1.17,7l0,0c2.06,4.65,7.49,9.82,13.73,15,.82.68,1.54,1.3,2.18,1.89l.5.44.38.34c6,5.56,3.76,6.83,14.58,18.1,12.35,12.85,20.85,13.08,23.27,11.91,2-1-2.11-7.81-6.72-15.47a52.6,52.6,0,0,1-22-16.21c-7.43-9.49-12.39-21.68-17.45-28.74-.29.17-.57.35-.84.53A31.1,31.1,0,0,0,1392.61,883.88Z" transform="translate(-236.31 -227.98)"/><path class="cls-7" d="M1583.39,869.11c1.46,7.3,11.87,6.08,23.5,3.24s8.86.54,25.42-1.3,21.57-8,22.07-10.46c.45-2.19-7.73-3-16.5-4l-3.32-.39c-9.9-1.25-17.16-7.64-26.15-12.89-8.53-5-21.25-25.23-21.25-25.23l-22.7,1.8s11.92,18.09,16.52,26c2.71,4.63,2.57,10.75,2.23,15.47A29.33,29.33,0,0,0,1583.39,869.11Z" transform="translate(-236.31 -227.98)"/><path class="cls-6" d="M1606.89,872.35c11.63-2.84,8.86.54,25.42-1.3s21.57-8,22.07-10.46c.45-2.19-7.73-3-16.5-4l-.08.17a46.68,46.68,0,0,1-23.71,7.37c-11.23.27-23.12-2.94-30.88-2.82a29.33,29.33,0,0,0,.18,7.77C1584.85,876.41,1595.26,875.19,1606.89,872.35Z" transform="translate(-236.31 -227.98)"/><path class="cls-6" d="M1496.39,724l-21.22,57.1-27.71,74.57a44.94,44.94,0,0,1-14.71-1.35c-6.63-1.92-14.24-6.93-14.24-6.93s7.69-80.06,22-126c3.68-11.8,7.8-21.34,12.35-26.71C1475.15,668.33,1496.39,724,1496.39,724Z" transform="translate(-236.31 -227.98)"/><path class="cls-8" d="M1474.81,633.26c-13.9-4.48-53.55,1.28-93.38,9.07l-8.34-13.75-86-6.72s-28.39,63-12.85,103.07c2.29,5.9,7.94,8.39,15.68,8.51h0s51.34,1.26,68,1.26c42.79,0,90.56-29.42,96.74-30.65,10.11-2,14.16,18.2,24.27,39.44s95.07,94.06,95.07,94.06,13.06.13,18.45-1.89c5.8-2.18,7.92-5,7.92-5S1506.17,643.38,1474.81,633.26Z" transform="translate(-236.31 -227.98)"/><path class="cls-6" d="M1364,375.93a30.46,30.46,0,0,0-16.55-4.27,51.32,51.32,0,0,1-8.21-.54c-32.61-4.39-52.23,43-53.38,57.34-2.13,26.46-16.13,30.5-35.83,47.07-39.5,33.22-27.92,71.83-6.32,86.18,13,8.6,35.81,0,35.81,0,.32.22,62.47-34.75,93.11-51.62C1418.51,503.56,1382.4,386.91,1364,375.93Z" transform="translate(-236.31 -227.98)"/><path class="cls-7" d="M1346.9,495.73c.14.09-15.07,5.28-25.24.78-9.57-4.23-16.82-20-16.68-20,4.36-.2,9.13-4,12.81-29l1.86.66,31.16,11.22s-2.26,10-3.72,19.51C1345.86,487,1345.2,494.6,1346.9,495.73Z" transform="translate(-236.31 -227.98)"/><path class="cls-9" d="M1350.81,459.44s-2.26,10-3.72,19.51c-17.9-3.22-24.92-21.05-27.44-30.73Z" transform="translate(-236.31 -227.98)"/><path class="cls-7" d="M1355.45,469.36s-42.63-5.72-38.66-32.22,1.14-45.07,28.53-42.54,31.15,13.43,32,22.6S1366.64,470.16,1355.45,469.36Z" transform="translate(-236.31 -227.98)"/><path class="cls-6" d="M1375.74,402.68s-27.29,23.52-45.85,25.41-25.6-4.06-25.6-4.06a72.46,72.46,0,0,0,17.53-23.75,13.05,13.05,0,0,1,10.76-7.69C1345.84,391.44,1371,390.92,1375.74,402.68Z" transform="translate(-236.31 -227.98)"/><path class="cls-6" d="M1358.68,400.57s9.13,8.83,12,15.38c2.77,6.31,3.6,21.43,1.39,27.43,0,0,14.23-27.66,6.17-41.1C1369.71,388,1358.68,400.57,1358.68,400.57Z" transform="translate(-236.31 -227.98)"/><path class="cls-10" d="M1382.8,558.53c-1.29,86.3-.35,68.27-9.79,76.46-2.28,2-8.67,3.14-17.09,3.7-26.46,1.76-73-2.6-74.75-7.49-6.1-16.92-1.79-22.18-6.88-48.09-.54-2.75-1.19-5.73-2-9-4.25-17.79-8.38-23.85,6.68-52.43,13.66-25.9,27.85-46.91,29.13-46.15,36,21.39,38.95,3.41,38.95,3.41S1383.43,516.44,1382.8,558.53Z" transform="translate(-236.31 -227.98)"/><path class="cls-8" d="M1475.17,781.05l-27.71,74.57a44.94,44.94,0,0,1-14.71-1.35c-6.63-1.92-14.24-6.93-14.24-6.93s7.69-80.06,22-126Z" transform="translate(-236.31 -227.98)"/><path class="cls-10" d="M1347.09,479s37.08,6.29,41.44,22.26,30,109.83,30,109.83-18.85,3.39-27.56-5.32-30.31-80.8-30.31-80.8Z" transform="translate(-236.31 -227.98)"/><path class="cls-11" d="M1355.92,638.69c-26.46,1.76-73-2.6-74.75-7.49-6.1-16.92-1.79-22.18-6.88-48.09l12.76-35.94s-2.11,40,9.69,50.55,48.33,20.32,54.06,29.12A32.13,32.13,0,0,1,1355.92,638.69Z" transform="translate(-236.31 -227.98)"/><path class="cls-7" d="M1325.6,621.86s26.11-5.81,30.32-3.5,14.51,10.76,15.8,13.69-9.38-2.23-12.85-3.16c-2.25-.6-8.16,1.46-11.09,2.43-12.32,4.11-19.87,2-19.87,2Z" transform="translate(-236.31 -227.98)"/><path class="cls-10" d="M1308.12,475.53s-35.06,2.16-47.19,19.08c-17.08,23.83-51,125.36-31.55,138.91,21.87,15.25,99.54,4,99.54,4s2.59-12.08-1-17.92-62-15.28-64.73-18,33.71-52.6,33.71-60.69S1308.12,475.53,1308.12,475.53Z" transform="translate(-236.31 -227.98)"/><path class="cls-7" d="M1357.18,625.63s5.48,7,7.27,7.9a5.36,5.36,0,0,0,3,.63l-3.69-6.64Z" transform="translate(-236.31 -227.98)"/><path class="cls-7" d="M1355.92,618.36l15.9,7.73a2.82,2.82,0,0,1-2.63,1c-2-.09-6.9-1.89-6.9-1.89Z" transform="translate(-236.31 -227.98)"/><polygon class="cls-4" points="1128.14 416.35 1253.94 416.35 1291.79 322.25 1166.18 322.25 1128.14 416.35"/><polygon class="cls-12" points="1255.42 412.69 1089.3 412.69 1089.3 416.35 1253.94 416.35 1255.42 412.69"/><path class="cls-13" d="M1458.49,597.28c1-3.31-1-6-4.27-6a8.58,8.58,0,0,0-7.71,6c-.94,3.31,1,6,4.28,6A8.56,8.56,0,0,0,1458.49,597.28Z" transform="translate(-236.31 -227.98)"/><g id="man"><path class="cls-7" d="M1014.14,1008.81c-4.27,11.49-11.68,24.82-19.45,28.14-8.81,3.76-12.49,9.07-12.49,9.07l-7.12-4.13-8.49-4.94s.2-1,.61-2.48,1-3.67,1.91-6a8.21,8.21,0,0,0,1-7.56c-1.6-4.2-1.28-10.7,1.45-14.67s5.36-13.72,7-13.43c4,.68-2,14.1-.25,16.59a2.92,2.92,0,0,0,3.81,1.3l.07,0c11.15-4.91,24.67-31.34,30.66-27.77C1015.1,984.21,1016,1003.91,1014.14,1008.81Z" transform="translate(-236.31 -227.98)"/><path class="cls-8" d="M975.57,1024.81l14,9.82a2.21,2.21,0,0,0,3.06-.54l35.78-50.91a2.21,2.21,0,0,0-.53-3.06l-14-9.81a2.21,2.21,0,0,0-3.06.53L975,1021.75A2.21,2.21,0,0,0,975.57,1024.81Z" transform="translate(-236.31 -227.98)"/><path class="cls-6" d="M988.35,1033.8l8.19,5.75a1.68,1.68,0,0,0,2.33-.41l36.38-51.77a1.66,1.66,0,0,0-.41-2.32l-8.18-5.75a1.68,1.68,0,0,0-2.33.4L988,1031.47A1.68,1.68,0,0,0,988.35,1033.8Z" transform="translate(-236.31 -227.98)"/><path class="cls-6" d="M775.19,951.75s71.07,124,96.86,146.78L966.59,1028s13.72,4.21,19.72,18c0,0-57.41,117-113.93,121.93s-135.87-140.2-135.87-140.2Z" transform="translate(-236.31 -227.98)"/><path class="cls-6" d="M614.35,1794.89H573.29c-5.17-2.81-9.78-9.23-11.23-18.82-2-13.23-16.84-20.44-20-31.26s13.23-26,13.23-26l2.75-3.54,2.86-3.68,27.26,6.42s.67,6.49,1.08,14.76a186.23,186.23,0,0,1,.12,18.91c-.8,14.42,4,30,16.86,32.77C615.65,1786.47,615.22,1792.1,614.35,1794.89Z" transform="translate(-236.31 -227.98)"/><path class="cls-6" d="M852.68,1794.89H758.76c-4.51-5.51-2.85-25.85-2.16-32.49.14-1.34.23-2.12.23-2.12s32.07-25.65,36.48-6c.13.62.29,1.22.47,1.81,5.55,18.38,30.44,26.72,44.82,29.05C847.94,1786.65,851.4,1791.5,852.68,1794.89Z" transform="translate(-236.31 -227.98)"/><path class="cls-4" d="M834.78,1270.68s-4.87,60.76-10.59,133.79c-7.78,99.2-17.13,221.06-18.06,244.15-1.6,40.08-8,104.21-8,104.21s-15.22,15.23-45.69,8.81c0,0-27.15-91.54-34.9-188.39-.12-1.58-.24-3.18-.36-4.78-7.22-98.59-18.44-306.2-18.44-306.2Z" transform="translate(-236.31 -227.98)"/><path class="cls-12" d="M834.78,1270.68s-4.87,60.76-10.59,133.79L717.52,1573.25c-.12-1.58-.24-3.18-.36-4.78-7.22-98.59-18.44-306.2-18.44-306.2Z" transform="translate(-236.31 -227.98)"/><path class="cls-4" d="M812.54,1277.9s-87.77,220-145.48,323.43-75.75,132.26-75.75,132.26-33.06-13.23-36.07-22.24c0,0,22.07-199.63,60.72-248.29,21.84-27.5,47.49-110,48.7-138.87s7.81-86,7.81-86Z" transform="translate(-236.31 -227.98)"/><path class="cls-7" d="M790.7,957.14c-34.3,10.82-93.65-18.38-93.65-18.38s31.62-23.74,30-73.09L753.54,887l18,14.52a214.92,214.92,0,0,1-2,23.56c-.52,3.94-1.17,8.34-2,13.14A82.27,82.27,0,0,1,790.7,957.14Z" transform="translate(-236.31 -227.98)"/><path class="cls-9" d="M771.55,901.56a214.92,214.92,0,0,1-2,23.56c-20-3.43-42.6-35.69-42.6-35.69C737.07,886.5,746,886,753.54,887Z" transform="translate(-236.31 -227.98)"/><path class="cls-7" d="M782,900.75s-56.65,9.41-62-26-16.21-58,19.73-65.48,45,4.93,49.67,16.3S796.64,897.39,782,900.75Z" transform="translate(-236.31 -227.98)"/><path class="cls-8" d="M838.57,1275.74a5.56,5.56,0,0,1-3.61,1.38c-12.88-.18-50.44,7-82.22,3.71-26.79-2.57-50.5-10.5-76-21.92-3.38-1.52-11.16-5.67-11-9.45.12-4.14.53-10.14,1-17.7,1.81-26.29,4.95-71.5,1.89-123.66-.56-9.71-.84-19.34-.88-28.83-.26-70.69,13.76-132.86,41.92-153.91,2.41-1.72,17.18,5.5,30.75,12.19,12.54,6.19,25.08,6.87,36.92,4.47l11.85,10.48c14.43,13.39,30.23,31.6,37.1,59.25,5.84,23.53,9.27,66,11.16,109.93.86,19.92,1.55,40,1.73,59.08v.69c.16,1.89.16,4,.16,5.84C840.12,1236.24,839.42,1275.05,838.57,1275.74Z" transform="translate(-236.31 -227.98)"/><path class="cls-6" d="M666.82,1231.76c1.81-26.29,4.95-71.5,1.89-123.66-.56-9.71-.84-19.34-.88-28.83,11.73-28.46,21.32-49.1,21.32-49.1h29.58S740.41,1178.27,666.82,1231.76Z" transform="translate(-236.31 -227.98)"/><path class="cls-6" d="M515.33,1399.61l126.13,18a30.24,30.24,0,0,0,34.1-25.59l7.79-54.66a30.23,30.23,0,0,0-25.59-34.1l-126.14-18a30.24,30.24,0,0,0-34.1,25.6l-7.78,54.66A30.23,30.23,0,0,0,515.33,1399.61Z" transform="translate(-236.31 -227.98)"/><path class="cls-8" d="M664.88,1319.52h0A30.36,30.36,0,0,0,644,1301.26h0c-1-.23-1.92-.42-2.92-.56l-25.11-3.57,1.68-11.8a10,10,0,0,0-8.48-11.29l-6.55-.94-26.37-3.76-4.76-.67a10,10,0,0,0-11.29,8.47l-1.68,11.8-43.35-6.18a30.35,30.35,0,0,0-34.23,25.69l-7.88,55.3A30.36,30.36,0,0,0,498.71,1398l125.91,18a29.63,29.63,0,0,0,6.57.21h0a29.77,29.77,0,0,0,9.83-2.49,30.31,30.31,0,0,0,17.81-23.42l7.88-55.29A29.9,29.9,0,0,0,664.88,1319.52ZM566.36,1278a3.72,3.72,0,0,1,3.09-3.15,3.88,3.88,0,0,1,1.13,0l5.6.8,20.75,3,11.32,1.61a3.74,3.74,0,0,1,3.16,4.22l-1.68,11.79-45.05-6.42Z" transform="translate(-236.31 -227.98)"/><path class="cls-7" d="M611.25,1236.85s-6.63,8.82-6.89,12.35c-1.78,23.89,9.14,27.2-19.13,40.47,0,0-12.07,4.6-12.28-4.76s8.38-9.53,6.81-22.64c-1.81-15.13-1.63-15.27,8.3-23.18l6.58-10.86Z" transform="translate(-236.31 -227.98)"/><path class="cls-8" d="M594.4,1243.61a96.89,96.89,0,0,0,22.2,1.24s31.61-97.67,35.68-106.6,93.92-114.52,93.92-114.52l-37.43-93.67s-97.18,162.32-107,185.13c-16.3,37.69-22,122.2-22,122.2A40.77,40.77,0,0,0,594.4,1243.61Z" transform="translate(-236.31 -227.98)"/><path class="cls-8" d="M720,871.38s5.82-1,4.88-9-.93-18.47,5.58-16.52S737.32,853,740,850s2.73-15.87,22.1-16.76,27.24,5.85,36.25,1.89,9.49-17.6,9.49-17.6-2.56,4.87-6.43,6.42c0,0,15-20.56-2.38-34.65s-35.14-4.87-45.21-4.26c-22.19,1.34-36.52,2.67-43.77,17.25S705.79,857.35,720,871.38Z" transform="translate(-236.31 -227.98)"/><path class="cls-7" d="M600.8,1247.36s6.38,6.65,6.78,9.41c1.29,8.88,4.26,12.72,2.77,13.68-3.09,2-7.18-4.56-9.13-10.46S600.8,1247.36,600.8,1247.36Z" transform="translate(-236.31 -227.98)"/></g><path class="cls-7" d="M2263.83,1063.12c0-.61,8.88-19,6.06-20.39s-7.89-1.2-8.48,2S2263.83,1063.12,2263.83,1063.12Z" transform="translate(-236.31 -227.98)"/><path class="cls-6" d="M2396.44,834.81s52.09-62.6,79.67-22.55c0,0,20.57,8.54,28,43.56,7.59,35.73-16.17,62.89-28.46,56.18-7.88-4.31-13.84,9.48-13.84,9.48Z" transform="translate(-236.31 -227.98)"/><path class="cls-7" d="M2331.83,1167.91c-41.41-15.26-81.3-86.13-81.3-86.13l13.06-9.14c10.88,15.91,59.82,46.46,59.82,46.46,1.12-13.41,2.74-25.57,4.74-36.59,13.59-74.9,44.67-97.09,53-101.8a19.31,19.31,0,0,1,2.11-1.06s0,.55-.09,1.59c-.12,2.26-.39,6.8-.82,13C2379.12,1040.63,2366.44,1180.67,2331.83,1167.91Z" transform="translate(-236.31 -227.98)"/><path class="cls-6" d="M2470.42,805.92s7-28,48.15-19.26c0,0-19.7-2.49-25.1,5.1,0,0,15.62-7.15,25.39-1.16s11.38,26.11,9.93,32.24-12.26,24.37-19.41,24.37-15.61-6.27-15.61-6.27Z" transform="translate(-236.31 -227.98)"/><path class="cls-7" d="M2532,1244.38c-20.46-45.88-30.25-58.85-30.59-73.29-.27-11.42,5.36-23.74,16.3-53.94a112.65,112.65,0,0,0,5.44-21.83c8.65-58.23-25-121.18-45.95-125.47-5.82-1.54-15.69-22.57-15.57-56.46l-2.62.52-44.07,8.72s1,13.87,1,26.94c0,10.89-.63,21.2-3.09,22.5-3.18.29-5,.48-5,.48s-36.74,51-39.83,98.49,29.42,68.08-.25,162.92C2337.45,1330.82,2543.29,1269.74,2532,1244.38Z" transform="translate(-236.31 -227.98)"/><path class="cls-14" d="M2414.93,922.63s1,13.87,1,26.94c24.66-.7,37.69-23.19,43-35.66Z" transform="translate(-236.31 -227.98)"/><path class="cls-6" d="M2463.55,909.11s12.92-20.42,16-37.88c2.22-12.46-4.13-58.67-50.56-52a63,63,0,0,0-26.17,9.89c-10.08,6.8-24.63,21.5-8.36,61.82l4.23,13.62Z" transform="translate(-236.31 -227.98)"/><path class="cls-7" d="M2406.69,935s58.35,1,58.39-35.39,7.59-60.69-29.66-62.84-44.5,11.71-47.46,23.83S2391.52,933.82,2406.69,935Z" transform="translate(-236.31 -227.98)"/><path class="cls-6" d="M2408.85,835.89s16,42.64,40.49,48.94,35.15-.26,35.15-.26-18.8-14.94-22.7-41C2461.79,843.55,2420.9,815.59,2408.85,835.89Z" transform="translate(-236.31 -227.98)"/><path class="cls-6" d="M2412.81,839.35s-11.93,9.52-14.84,18.77-4.21,28.31-9.77,27.66c0,0-12-29,1.49-45.37C2404,823,2412.81,839.35,2412.81,839.35Z" transform="translate(-236.31 -227.98)"/><path class="cls-15" d="M2480.33,1684.68a576.77,576.77,0,0,1-36.77,103.15l-19.24-1.33s9.43-44.89,8.89-105.53c-.38-42.4-5.63-92.51-22.38-140.36-57.57-164.41-48.26-284.07-48.26-284.07l108.26,12.66,5,.59c.45,49.72,1.73,117.22,2.86,170,1,47.47,1.86,83,1.86,83C2501.41,1567.66,2493.85,1630.94,2480.33,1684.68Z" transform="translate(-236.31 -227.98)"/><path class="cls-7" d="M2607.87,1293.12l-17.51,5.26s-57.78-95.87-63-120.82c-1.71-8.12-5.91-24.37-10.81-42.58-10.15-37.71-23.24-83.85-23.24-83.85l-4.32-18.67-14.7-63.7s28.16,2.88,44.63,9.76c5.46,2.28,9.62,5,11.07,8.19,12.1,26.61,24.18,93.76,32.68,141.66,4.73,26.7,8.34,47.43,10.22,51.82C2578.11,1192.44,2594.16,1259.85,2607.87,1293.12Z" transform="translate(-236.31 -227.98)"/><path class="cls-16" d="M2542.44,1675.35c-6.22,66.44-33.63,109.39-33.63,109.39l-9.19,6.69s-8.7-46.81-14.86-102.49c-5.86-52.93-13.9-108.94-23-126-36.1-67.79-47-323.73-47-323.73l109.77-5.44c11,18.55,15.85,49,17,83.6,2.89,87.35-17.65,201.25-20.71,217.72a.08.08,0,0,1,0,0,5.75,5.75,0,0,0,.72,3.68C2543.38,1582,2546.54,1631.47,2542.44,1675.35Z" transform="translate(-236.31 -227.98)"/><path class="cls-6" d="M2410.6,840.79s11.38,44.65,42.31,59c0,0-30.93-27.43-33.56-56.91S2410.6,840.79,2410.6,840.79Z" transform="translate(-236.31 -227.98)"/><path class="cls-4" d="M2545.75,1277.51a26.06,26.06,0,0,1-.68,8.77c-2.34,7.35-10.36,10.7-29.75,8.7-11.85-1.24-17.13-21.1-19.49-38-7.12,24.24-17.08,37.85-30,40.7-18.79,4.18-113.62,15.71-119.83-29.36-6.82-49.58,13.62-137.37,14.74-184.7a234.13,234.13,0,0,1-3.44-43.87c.79-33.71,10.69-52.61,18.3-60.22,2.16-1.66,4.31-2.69,13-4.17,4.43-.76,10.55-1.63,19.23-2.77a32.73,32.73,0,0,1,3.47-.27c-1.61,2.87-23.09,35.39-21.41,43.75,1.75,8.76,77.92.87,83.17-3.94s13.57-41.69,13.57-41.69,27,3,40.16,12.55l-.14.17a11,11,0,0,1,3.47,3.65c14.08,26.8,28.13,94.43,38,142.68-24,13.2-44.9,9.27-51.39,7.53C2525.23,1192.54,2544.49,1252.2,2545.75,1277.51Z" transform="translate(-236.31 -227.98)"/><path class="cls-7" d="M2263.59,1072.64c0-1.81,1.51-27.87-3.13-33.34s-14.11-13.26-17.08-13-14.64,15.72-11.13,27.58,18.28,27.92,18.28,27.92Z" transform="translate(-236.31 -227.98)"/><rect class="cls-17" x="2247.37" y="988.86" width="31.58" height="57.15" rx="1.69" transform="translate(-433.13 464.6) rotate(-16.68)"/><path class="cls-18" d="M2277.85,1042.86l-24.5,7.34a3,3,0,0,1-3.74-2l-14.68-49a3,3,0,0,1,2-3.74l24.49-7.34a3,3,0,0,1,3.74,2l14.69,49A3,3,0,0,1,2277.85,1042.86Z" transform="translate(-236.31 -227.98)"/><path class="cls-7" d="M2542.44,1675.35c-6.22,66.44-33.63,109.39-33.63,109.39l-9.36,8.53s-8.53-48.65-14.69-104.33C2491.25,1689.41,2519.84,1690.45,2542.44,1675.35Z" transform="translate(-236.31 -227.98)"/><path class="cls-19" d="M2480.33,1684.68a576.77,576.77,0,0,1-36.77,103.15l-19.24-1.33s9.43-44.89,8.89-105.53C2439.74,1684.26,2453.21,1687.59,2480.33,1684.68Z" transform="translate(-236.31 -227.98)"/><path class="cls-6" d="M2454.64,1804h-12.29c-4.11-.65-7.15-1.84-11.37-2.39-6.41-.84-9.36,1.78-9.94,2.39l-.12.12h-52.18c-1.31-1.87,0-6.21,1.18-9.41a7.47,7.47,0,0,1,4.89-4.47c5.53-1.6,16.44-3,26.43-12.07,5.62-5.08,27.14-18.67,27.14-18.67l.11,0c.48,0,2.73.7,12.51,9,5.06,4.26,13.69-6,13.69-6a12.29,12.29,0,0,1,2.83,3.84,13,13,0,0,1,1.12,8c-.78,4.7,1.73,13.44,3.74,19.35,1.21,3.58,2.24,6.12,2.24,6.12S2465.2,1802.65,2454.64,1804Z" transform="translate(-236.31 -227.98)"/><path class="cls-20" d="M2457.52,1766.22c-2.94,2.06-9.13,6.13-13.23,6.67-5.54.73-15.91-13.42-15.91-13.42l.11,0c.48,0,2.73.7,12.51,9,5.06,4.26,13.69-6,13.69-6A12.29,12.29,0,0,1,2457.52,1766.22Z" transform="translate(-236.31 -227.98)"/><path class="cls-20" d="M2454.64,1804h-12.29c-4.11-.65-7.15-1.84-11.37-2.39-6.41-.84-9.36,1.78-9.94,2.39l-.12.12h-52.18c-1.31-1.87,0-6.21,1.18-9.41,1.59-1.41,2,6.12,2.91,7.32s42.57.44,45-1.31,9.63-4.82,19.7-2.41c8.77,2.09,21.68-3.28,24.88-4.7,1.21,3.58,2.24,6.12,2.24,6.12S2465.2,1802.65,2454.64,1804Z" transform="translate(-236.31 -227.98)"/><path class="cls-6" d="M2520.18,1804H2507.9c-4.11-.65-7.15-1.84-11.37-2.39-6.41-.84-9.36,1.78-10,2.39l-.11.12h-52.18c-1.31-1.87-.05-6.21,1.18-9.41a7.45,7.45,0,0,1,4.89-4.47c5.53-1.6,16.44-3,26.43-12.07,5.62-5.08,27.14-18.67,27.14-18.67l.11,0c.47,0,2.72.7,12.51,9,5.06,4.26,13.69-6,13.69-6a12.18,12.18,0,0,1,2.82,3.84,12.83,12.83,0,0,1,1.12,8c-.77,4.7,1.74,13.44,3.74,19.35,1.22,3.58,2.24,6.12,2.24,6.12S2530.75,1802.65,2520.18,1804Z" transform="translate(-236.31 -227.98)"/><path class="cls-20" d="M2523.06,1766.22c-2.93,2.06-9.12,6.13-13.22,6.67-5.55.73-15.91-13.42-15.91-13.42l.11,0c.47,0,2.72.7,12.51,9,5.06,4.26,13.69-6,13.69-6A12.18,12.18,0,0,1,2523.06,1766.22Z" transform="translate(-236.31 -227.98)"/><path class="cls-20" d="M2520.18,1804H2507.9c-4.11-.65-7.15-1.84-11.37-2.39-6.41-.84-9.36,1.78-10,2.39l-.11.12h-52.18c-1.31-1.87-.05-6.21,1.18-9.41,1.59-1.41,2,6.12,2.91,7.32s42.56.44,45-1.31,9.63-4.82,19.7-2.41c8.76,2.09,21.68-3.28,24.87-4.7,1.22,3.58,2.24,6.12,2.24,6.12S2530.75,1802.65,2520.18,1804Z" transform="translate(-236.31 -227.98)"/><path class="cls-21" d="M2545.75,1277.51c-13-4.35-29.74-15.92-49.81-41.86-53.14-68.68-4.51-149.39,2-150.89s18.79,52.22,18.79,52.22C2525.23,1192.54,2544.49,1252.2,2545.75,1277.51Z" transform="translate(-236.31 -227.98)"/><path class="cls-4" d="M2378.89,978s-36.39,18.31-48.51,92.2c0,0,11.92,16.34,28.71,21.16a33.44,33.44,0,0,0,7.47,1.27C2387.17,1093.68,2378.89,978,2378.89,978Z" transform="translate(-236.31 -227.98)"/><path class="cls-7" d="M2240.59,1028.28s11.24-17.31,14-16.34c3.92,1.37-10.19,23.33-10.19,23.33s10.46-16.41,12.09-15.18c3.73,2.82-2.2,13.13-8.08,21,0,0,10.52-9.63,10.86-7.9,1.2,6.08-11.55,20.81-11.55,20.81l-7.12-16.28Z" transform="translate(-236.31 -227.98)"/><path class="cls-7" d="M2232.15,1044.34c.55-2.11,3.29-43.43,4.47-39.51s4,25.58,4,25.58Z" transform="translate(-236.31 -227.98)"/><path class="cls-13" d="M2418.09,913.43s-1,4.28-11.66,3.62c0,0-8.95-.55-8.67-5.26C2397.76,911.79,2406.43,908.45,2418.09,913.43Z" transform="translate(-236.31 -227.98)"/><path class="cls-7" d="M2607.87,1293.12s21.13,14.05,24.36,20,10.77,27.72,10.77,27.72-5.38.81-10.77-8.61-23.14-8.61-29.06-13.73-12.81-20.09-12.81-20.09Z" transform="translate(-236.31 -227.98)"/><path class="cls-7" d="M2592.65,1303s3.52,16.54,7.82,21.38,10.23,12.92,12.66,10.77-2.7-20.19-2.7-20.19Z" transform="translate(-236.31 -227.98)"/><path class="cls-7" d="M2629.27,1315c.54.81,19.11,20.55,19.11,20.55s-6.73,3-8.61,0S2629.27,1315,2629.27,1315Z" transform="translate(-236.31 -227.98)"/><path class="cls-13" d="M1373.39,1146.4h-30.21v-77.54h-78v77.54h-30.32V971.89h30.32v72.63h78V971.89h30.21Z" transform="translate(-236.31 -227.98)"/><path class="cls-13" d="M1535.77,1068.5H1464.1v53.69h83.78v24.21H1433.77V971.89H1547v24.45H1464.1v48.18h71.67Z" transform="translate(-236.31 -227.98)"/><path class="cls-13" d="M1627.44,1122.19h79.23v24.21H1597.12V971.89h30.32Z" transform="translate(-236.31 -227.98)"/><path class="cls-13" d="M1784.79,1122.19H1864v24.21H1754.47V971.89h30.32Z" transform="translate(-236.31 -227.98)"/><path class="cls-13" d="M2043.43,1063.7q0,19.9-5.22,35.66a77.59,77.59,0,0,1-14.68,26.73,63.74,63.74,0,0,1-22.77,16.84,76.69,76.69,0,0,1-58.85,0,65.49,65.49,0,0,1-23-16.84,77.61,77.61,0,0,1-15-26.73q-5.34-15.77-5.33-35.66v-8.87q0-19.89,5.33-35.72a79.51,79.51,0,0,1,14.86-26.85,64.11,64.11,0,0,1,22.84-16.9,72,72,0,0,1,29.36-5.87,72.75,72.75,0,0,1,29.55,5.87,63.85,63.85,0,0,1,22.89,16.9,77.8,77.8,0,0,1,14.74,26.85q5.22,15.83,5.22,35.72Zm-30.33-9.11a106.89,106.89,0,0,0-2.81-25.83,55.32,55.32,0,0,0-8.21-18.76,35.7,35.7,0,0,0-13.25-11.44,39.47,39.47,0,0,0-17.8-3.9,38.58,38.58,0,0,0-17.5,3.9,36.23,36.23,0,0,0-13.24,11.44,56,56,0,0,0-8.39,18.76,102.22,102.22,0,0,0-2.94,25.83v9.11a102.93,102.93,0,0,0,2.94,25.89,55.88,55.88,0,0,0,8.45,18.88,36.28,36.28,0,0,0,13.36,11.5,38.92,38.92,0,0,0,17.56,3.9q20.14,0,31-15.34t10.84-44.83Z" transform="translate(-236.31 -227.98)"/><rect class="cls-13" x="959.35" y="1267.06" width="376.38" height="166.95" rx="18.9"/><polygon class="cls-13" points="1327.83 1278.88 1408 1225.64 1327.83 1393.19 1327.83 1278.88"/><path class="cls-22" d="M1309,1610.33h-12v-30.72h-30.91v30.72h-12V1541.2h12V1570h30.91V1541.2h12Z" transform="translate(-236.31 -227.98)"/><path class="cls-22" d="M1362.55,1610.33a9.49,9.49,0,0,1-.79-2.14c-.2-.82-.38-1.71-.54-2.66a19.58,19.58,0,0,1-2.54,2.23,17.48,17.48,0,0,1-3.09,1.83,17.81,17.81,0,0,1-3.65,1.24,18.94,18.94,0,0,1-4.21.45,20.85,20.85,0,0,1-7.07-1.16,16.77,16.77,0,0,1-5.53-3.23,14.91,14.91,0,0,1-3.61-4.87,14.22,14.22,0,0,1-1.31-6.08,16.27,16.27,0,0,1,1.57-7.31,14.11,14.11,0,0,1,4.56-5.32,21.85,21.85,0,0,1,7.33-3.25,40.14,40.14,0,0,1,9.9-1.12h7.27v-3.37a9,9,0,0,0-2.23-6.38q-2.23-2.4-6.79-2.4a12,12,0,0,0-3.71.54,9,9,0,0,0-2.82,1.48,6.48,6.48,0,0,0-1.81,2.2,6.22,6.22,0,0,0-.64,2.76H1331.3a12.38,12.38,0,0,1,1.5-5.87,16.11,16.11,0,0,1,4.25-5,21.78,21.78,0,0,1,6.67-3.54,29.26,29.26,0,0,1,16.74-.21,17.86,17.86,0,0,1,6.31,3.32,14.94,14.94,0,0,1,4.13,5.51,18.66,18.66,0,0,1,1.48,7.72v22.79q0,6.93,1.94,11.06v.81Zm-12.68-8.31a12.84,12.84,0,0,0,3.73-.52,13.49,13.49,0,0,0,3.13-1.38,12,12,0,0,0,2.45-2,11.06,11.06,0,0,0,1.66-2.26v-9.68h-6.22q-6.42,0-9.64,2.23a7.23,7.23,0,0,0-3.23,6.31,7.79,7.79,0,0,0,.52,2.9,6.09,6.09,0,0,0,1.57,2.3,7.32,7.32,0,0,0,2.54,1.52A10,10,0,0,0,1349.87,1602Z" transform="translate(-236.31 -227.98)"/><path class="cls-22" d="M1406.46,1610.33h-11.54V1537.4h11.54Z" transform="translate(-236.31 -227.98)"/><path class="cls-22" d="M1441,1610.33h-11.54V1537.4H1441Z" transform="translate(-236.31 -227.98)"/><path class="cls-22" d="M1461.14,1584.17a31.82,31.82,0,0,1,1.64-10.38,24.57,24.57,0,0,1,4.7-8.28A21.39,21.39,0,0,1,1475,1560a24.06,24.06,0,0,1,10-2,24.56,24.56,0,0,1,10.11,2,21.49,21.49,0,0,1,7.53,5.51,24.18,24.18,0,0,1,4.67,8.28,32.09,32.09,0,0,1,1.62,10.38v1a32.25,32.25,0,0,1-1.62,10.4,24,24,0,0,1-4.67,8.29,21.51,21.51,0,0,1-7.51,5.46,26.7,26.7,0,0,1-20.13,0,21.38,21.38,0,0,1-7.5-5.46,24.33,24.33,0,0,1-4.7-8.29,32,32,0,0,1-1.64-10.4Zm11.54,1a28.87,28.87,0,0,0,.71,6.56,16.46,16.46,0,0,0,2.23,5.39,10.75,10.75,0,0,0,9.45,5,10.68,10.68,0,0,0,9.38-5,17.13,17.13,0,0,0,2.23-5.39,28.29,28.29,0,0,0,.74-6.56v-1a27.67,27.67,0,0,0-.74-6.48,16.6,16.6,0,0,0-2.26-5.37,11.64,11.64,0,0,0-3.87-3.68,10.78,10.78,0,0,0-5.57-1.38,10.59,10.59,0,0,0-5.54,1.38,11.87,11.87,0,0,0-3.82,3.68,16.34,16.34,0,0,0-2.23,5.37,28.23,28.23,0,0,0-.71,6.48Z" transform="translate(-236.31 -227.98)"/><path class="cls-8" d="M2193.5,551V486.37h22.14a39.16,39.16,0,0,1,9.41,1,19.88,19.88,0,0,1,7,3.17,13.89,13.89,0,0,1,4.42,5.44,18.48,18.48,0,0,1,1.53,7.83,14,14,0,0,1-2.4,8,15.33,15.33,0,0,1-7,5.5,15.27,15.27,0,0,1,4.86,2.2,13.45,13.45,0,0,1,3.42,3.39,14.56,14.56,0,0,1,2,4.31,17.91,17.91,0,0,1,.66,4.88,20.41,20.41,0,0,1-1.53,8.18,15.5,15.5,0,0,1-4.43,5.91,19.66,19.66,0,0,1-7.06,3.57,33.77,33.77,0,0,1-9.38,1.2Zm11.23-37.41h11q5.23,0,8.19-2.38a8.14,8.14,0,0,0,2.95-6.72q0-4.79-2.73-6.92t-8.5-2.13h-10.91Zm0,8.25V542h12.47a15,15,0,0,0,4.85-.71,9.53,9.53,0,0,0,3.53-2,8.2,8.2,0,0,0,2.13-3.12,11.13,11.13,0,0,0,.71-4,10.72,10.72,0,0,0-2.53-7.55q-2.52-2.75-8.21-2.75Z" transform="translate(-236.31 -227.98)"/><path class="cls-8" d="M2311.48,520.36a41.84,41.84,0,0,1-1.93,13.2,28.68,28.68,0,0,1-5.44,9.89,23.45,23.45,0,0,1-8.43,6.24,28.41,28.41,0,0,1-21.78,0,24.14,24.14,0,0,1-8.5-6.24,28.7,28.7,0,0,1-5.55-9.89,41,41,0,0,1-2-13.2v-3.29a41.18,41.18,0,0,1,2-13.22,29.45,29.45,0,0,1,5.5-9.94,23.75,23.75,0,0,1,8.46-6.26,26.74,26.74,0,0,1,10.87-2.17,27.08,27.08,0,0,1,10.94,2.17,23.7,23.7,0,0,1,8.47,6.26,28.88,28.88,0,0,1,5.46,9.94,42.05,42.05,0,0,1,1.93,13.22ZM2300.25,517a39.28,39.28,0,0,0-1-9.57,20.31,20.31,0,0,0-3-6.94,13.16,13.16,0,0,0-4.9-4.24,14.67,14.67,0,0,0-6.59-1.44,14.29,14.29,0,0,0-6.48,1.44,13.4,13.4,0,0,0-4.9,4.24,20.76,20.76,0,0,0-3.11,6.94,37.72,37.72,0,0,0-1.09,9.57v3.37a37.86,37.86,0,0,0,1.09,9.58,20.85,20.85,0,0,0,3.13,7,13.41,13.41,0,0,0,4.95,4.26,14.4,14.4,0,0,0,6.5,1.44q7.45,0,11.47-5.68t4-16.59Z" transform="translate(-236.31 -227.98)"/><path class="cls-8" d="M2383,551h-11.23L2343,505.14V551h-11.23V486.37H2343l28.88,46v-46H2383Z" transform="translate(-236.31 -227.98)"/><path class="cls-8" d="M2431.8,486.37H2443v45.3a22.08,22.08,0,0,1-1.58,8.57,17.63,17.63,0,0,1-4.39,6.34,19.14,19.14,0,0,1-6.68,3.93,25.35,25.35,0,0,1-8.43,1.35,29.71,29.71,0,0,1-8.5-1.15,18,18,0,0,1-6.68-3.55,16.47,16.47,0,0,1-4.37-6,21.49,21.49,0,0,1-1.57-8.57H2412a13.71,13.71,0,0,0,.73,4.77,8.24,8.24,0,0,0,2,3.2,8.09,8.09,0,0,0,3.13,1.79,13.14,13.14,0,0,0,4,.58,10.53,10.53,0,0,0,4-.73A8.55,8.55,0,0,0,2429,540a10.09,10.09,0,0,0,2-3.51,14.53,14.53,0,0,0,.73-4.84Z" transform="translate(-236.31 -227.98)"/><path class="cls-8" d="M2516.46,520.36a41.84,41.84,0,0,1-1.93,13.2,28.68,28.68,0,0,1-5.44,9.89,23.45,23.45,0,0,1-8.43,6.24,28.41,28.41,0,0,1-21.78,0,24.14,24.14,0,0,1-8.5-6.24,28.7,28.7,0,0,1-5.55-9.89,41,41,0,0,1-2-13.2v-3.29a41.18,41.18,0,0,1,2-13.22,29.45,29.45,0,0,1,5.5-9.94,23.75,23.75,0,0,1,8.46-6.26,26.74,26.74,0,0,1,10.87-2.17,27.08,27.08,0,0,1,10.94,2.17,23.7,23.7,0,0,1,8.47,6.26,28.88,28.88,0,0,1,5.46,9.94,42.05,42.05,0,0,1,1.93,13.22ZM2505.23,517a39.78,39.78,0,0,0-1-9.57,20.51,20.51,0,0,0-3-6.94,13.24,13.24,0,0,0-4.9-4.24,14.67,14.67,0,0,0-6.59-1.44,14.29,14.29,0,0,0-6.48,1.44,13.4,13.4,0,0,0-4.9,4.24,20.56,20.56,0,0,0-3.11,6.94,37.72,37.72,0,0,0-1.09,9.57v3.37a37.86,37.86,0,0,0,1.09,9.58,20.66,20.66,0,0,0,3.13,7,13.41,13.41,0,0,0,4.95,4.26,14.4,14.4,0,0,0,6.5,1.44q7.45,0,11.47-5.68t4-16.59Z" transform="translate(-236.31 -227.98)"/><path class="cls-8" d="M2584,486.37v43.22a23.35,23.35,0,0,1-1.89,9.72,19.58,19.58,0,0,1-5.17,7,22.07,22.07,0,0,1-7.67,4.2,31,31,0,0,1-9.41,1.39,31.75,31.75,0,0,1-9.61-1.39,21.54,21.54,0,0,1-7.65-4.2,19.09,19.09,0,0,1-5.06-7,24,24,0,0,1-1.82-9.72V486.37h11.18v43.22a17.43,17.43,0,0,0,.91,6,10.88,10.88,0,0,0,2.6,4.15,10.2,10.2,0,0,0,4.08,2.41,17.32,17.32,0,0,0,5.37.78,17.5,17.5,0,0,0,5.39-.78,10.07,10.07,0,0,0,4.08-2.41,11,11,0,0,0,2.57-4.15,17.43,17.43,0,0,0,.91-6V486.37Z" transform="translate(-236.31 -227.98)"/><path class="cls-8" d="M2628.8,526.08h-12.52V551h-11.22V486.37h22.72a35.59,35.59,0,0,1,9.89,1.26,20.41,20.41,0,0,1,7.34,3.73,15.75,15.75,0,0,1,4.55,6.1,21.27,21.27,0,0,1,1.56,8.43,18.19,18.19,0,0,1-3.13,10.85,19.81,19.81,0,0,1-8.72,6.72l14.51,26.94V551h-12Zm-12.52-9h11.54a15.94,15.94,0,0,0,5.28-.79,10.67,10.67,0,0,0,3.77-2.22,9,9,0,0,0,2.26-3.38,11.67,11.67,0,0,0,.76-4.3,13.53,13.53,0,0,0-.71-4.5,9,9,0,0,0-2.18-3.47,9.54,9.54,0,0,0-3.74-2.21,17.07,17.07,0,0,0-5.48-.78h-11.5Z" transform="translate(-236.31 -227.98)"/><path class="cls-8" d="M832.23,415.53a168.35,168.35,0,0,1-14.43,21.64,69.86,69.86,0,0,0-6-7.49c13-15.54,25.53-41.9,33.44-67.57l11.52,3.47c-.56,1.39-1.81,1.67-3.33,1.53A308.8,308.8,0,0,1,840.28,400l4,1.11c-.28.83-1,1.52-2.78,1.66V491h-9.29Zm95,3.33c1.11-5.14,2.49-12.91,3.74-20.4H903.4v81c0,10-3.61,11.79-23,11.79a37.51,37.51,0,0,0-3.47-9.57c3.47.13,6.8.13,9.44.13h5.55c1.8,0,2.36-.55,2.36-2.35v-81H871.91c-4.16,10.13-9,19.29-14.29,26.22a41,41,0,0,0-7.08-5.68c10-12.91,18.18-34.69,22.89-56.47L885,365.58c-.28,1-1.25,1.53-3.05,1.39a216.54,216.54,0,0,1-6.66,22.75h61.32l4.86.14c0,2.36-3.33,20.53-6.25,30.52Zm-44.4,4.57c-.42,1-1.39,1.53-3,1.53C875.38,442,867.75,460.2,859,471.3a44.43,44.43,0,0,0-7.36-4.72c8.47-10.54,15.68-28.44,20-46.2Zm50.36,46.76c-2.63-13-10.68-33-19-47.86l8.19-2.92c8.74,14.85,16.93,34.41,19.7,47.45Z" transform="translate(-236.31 -227.98)"/><path class="cls-8" d="M1013.42,391.11l5.27,1.39-.83,1.94c-2,24.56-6.38,44.26-13.32,59.66,6.8,5.27,12.62,10.4,16.37,15.12l-5.69,7.63a98.84,98.84,0,0,0-14.84-14.43,75,75,0,0,1-27.47,29,38.41,38.41,0,0,0-5.83-7.63c10.4-5.55,19.15-14.57,26.08-27.06a186.74,186.74,0,0,0-15.81-10.68l-1.67,6.1L967.77,448c3.47-12.21,7.77-29.83,11.8-47.72H965.69v-8.75h15.82c2.22-10.4,4.16-20.39,5.82-29.27l11.38,1.39c-.14,1-1,1.52-2.77,1.66-1.53,7.91-3.47,16.93-5.55,26.22h21.36Zm-25,9.16c-2.92,12.9-6.11,25.94-9,37.32,5.82,3.19,11.79,7.07,17.62,11,5.55-12.91,9.57-29,11.51-48.28Zm105.85,23.86v9h-33.43v45.92c0,10.68-4.17,12.35-28.72,12.07a48.36,48.36,0,0,0-3.47-9.3c6.66.14,12.76.28,16.65.28,4.72,0,6.1,0,6.1-2.91V433.15h-34v-9h34V400.54l4.58.28a137.82,137.82,0,0,0,20.53-22.61h-53.41v-8.74h60.49l1.8-.56,7.36,4.58a4.15,4.15,0,0,1-2.22,1.39,179.09,179.09,0,0,1-29.69,32v17.21Z" transform="translate(-236.31 -227.98)"/><path class="cls-5" d="M2725.63,958.25a85.19,85.19,0,1,1,13.6-119.71A85.29,85.29,0,0,1,2725.63,958.25Zm-98.21-123.38a72.51,72.51,0,1,0,101.89,11.57A72.59,72.59,0,0,0,2627.42,834.87Z" transform="translate(-236.31 -227.98)"/><path class="cls-5" d="M2816.12,1071.94a7.52,7.52,0,0,1-10.57-1.21l-88.21-110.81a7.53,7.53,0,0,1,11.78-9.38l88.21,110.82A7.53,7.53,0,0,1,2816.12,1071.94Z" transform="translate(-236.31 -227.98)"/><rect class="cls-22" x="1184.89" y="1178.3" width="26.45" height="47.24"/><polygon class="cls-22" points="1169.59 1178.3 1224.83 1178.3 1198.11 1137.92 1169.59 1178.3"/><rect class="cls-13" x="1355.25" y="1365.9" width="26.45" height="47.24" transform="translate(2500.63 2551.06) rotate(180)"/><polygon class="cls-13" points="1160.68 1185.16 1105.44 1185.16 1132.16 1225.54 1160.68 1185.16"/><rect class="cls-22" x="1934.64" y="529.44" width="21.54" height="38.47" transform="translate(2257.77 -1624.71) rotate(90)"/><polygon class="cls-22" points="1728.33 297.47 1728.33 342.45 1761.22 320.69 1728.33 297.47"/><rect class="cls-2" x="1967.52" y="475.74" width="21.54" height="38.47" transform="translate(1247.01 2245.28) rotate(-90)"/><polygon class="cls-2" points="1722.75 290.21 1722.75 245.23 1689.86 266.99 1722.75 290.21"/></svg>